 <svg version="1.0" xmlns="http://www.w3.org/2000/svg" width="700.000000pt" height="700.000000pt" viewBox="0 0 700.000000 700.000000" preserveAspectRatio="xMidYMid meet">
<metadata>
Created by potrace 1.12, written by Peter Selinger 2001-2015
</metadata>
<g transform="translate(0.000000,700.000000) scale(0.100000,-0.100000)" fill="#000000" stroke="none">
<path d="M2373 4023 c-45 -9 -67 -76 -44 -136 6 -14 256 -271 556 -571 458
-457 552 -546 581 -552 82 -15 65 -30 643 545 359 358 546 551 556 575 34 80
7 136 -64 136 -22 0 -50 -4 -63 -9 -25 -10 -221 -202 -675 -664 l-293 -297
-62 0 c-35 1 -75 6 -90 13 -14 7 -55 44 -90 83 -85 95 -334 349 -618 631 -177
177 -243 236 -270 243 -19 5 -37 9 -40 9 -3 -1 -15 -4 -27 -6z"></path>
</g>
</svg>