 <svg version="1.0" xmlns="http://www.w3.org/2000/svg" width="700.000000pt" height="700.000000pt" viewBox="0 0 700.000000 700.000000" preserveAspectRatio="xMidYMid meet">
<metadata>
Created by potrace 1.12, written by Peter Selinger 2001-2015
</metadata>
<g transform="translate(0.000000,700.000000) scale(0.100000,-0.100000)" fill="#000000" stroke="none">
<path d="M3444 4230 c-30 -12 -1103 -1087 -1115 -1117 -14 -37 -11 -86 7 -111
12 -18 25 -22 70 -22 l56 0 111 108 c245 237 622 620 750 762 38 41 80 80 95
87 15 7 56 12 91 13 l63 0 247 -251 c464 -474 694 -701 718 -710 13 -5 42 -9
64 -9 72 0 98 56 64 137 -17 41 -1074 1099 -1113 1114 -29 11 -80 11 -108 -1z"></path>
</g>
</svg>